<svg width="154" height="154" viewBox="0 0 154 154" fill="none" xmlns="http://www.w3.org/2000/svg">
<path d="M54.6633 12.8001H99.336C100.824 12.7997 101.965 12.7994 102.962 12.897C110.052 13.5905 115.855 17.8534 118.316 23.5954H35.6834C38.1443 17.8534 43.9475 13.5905 51.0375 12.897C52.0347 12.7994 53.1754 12.7997 54.6633 12.8001Z" fill="#5130D3"/>
<path d="M40.5873 30.228C31.6873 30.228 24.3896 35.6024 21.9542 42.7323C21.9035 42.8809 21.8548 43.0303 21.8083 43.1804C24.3564 42.4088 27.0084 41.9046 29.693 41.5605C36.6074 40.674 45.3455 40.6745 55.4961 40.6751L56.2542 40.6751L99.6056 40.6751C109.756 40.6745 118.494 40.674 125.409 41.5605C128.093 41.9046 130.745 42.4088 133.293 43.1804C133.247 43.0303 133.198 42.8809 133.147 42.7323C130.712 35.6024 123.414 30.228 114.514 30.228H40.5873Z" fill="#5130D3"/>
<path fill-rule="evenodd" clip-rule="evenodd" d="M55.7033 48.2691H98.2967C119.896 48.2691 130.695 48.2691 136.761 54.5848C142.827 60.9005 141.4 70.6581 138.546 90.1732L135.839 108.679C133.6 123.983 132.481 131.635 126.739 136.218C120.997 140.8 112.528 140.8 95.5897 140.8H58.4103C41.4724 140.8 33.0034 140.8 27.2614 136.218C21.5194 131.635 20.4001 123.983 18.1615 108.679L15.4545 90.1732C12.5999 70.6581 11.1726 60.9005 17.2388 54.5848C23.3051 48.2691 34.1045 48.2691 55.7033 48.2691ZM51.4 115.201C51.4 112.55 53.7878 110.401 56.7333 110.401H97.2667C100.212 110.401 102.6 112.55 102.6 115.201C102.6 117.852 100.212 120.001 97.2667 120.001H56.7333C53.7878 120.001 51.4 117.852 51.4 115.201Z" fill="#5130D3"/>
</svg>
