<svg width="154" height="154" viewBox="0 0 154 154" fill="none" xmlns="http://www.w3.org/2000/svg">
<path d="M106.056 13.3622C98.3075 12.8 88.8094 12.8 77 12.8H76.369L53.9689 46.4002H84.0311L106.056 13.3622Z" fill="#5130D3"/>
<path d="M64.8122 12.8285C42.5804 12.9966 30.3877 14.1575 22.3726 22.1726C16.8835 27.6617 14.6091 35.11 13.6668 46.4002H42.4311L64.8122 12.8285Z" fill="#5130D3"/>
<path fill-rule="evenodd" clip-rule="evenodd" d="M13.1692 56.0002C13 62.008 13 68.8849 13 76.8C13 106.97 13 122.055 22.3726 131.427C31.7452 140.8 46.8301 140.8 77 140.8C107.17 140.8 122.255 140.8 131.627 131.427C141 122.055 141 106.97 141 76.8C141 68.8849 141 62.008 140.831 56.0002H13.1692ZM37 89.6001C37 86.9491 39.149 84.8 41.8 84.8H93C95.651 84.8 97.8 86.9491 97.8 89.6001C97.8 92.251 95.651 94.4 93 94.4H41.8C39.149 94.4 37 92.251 37 89.6001ZM41.8 107.2C39.149 107.2 37 109.349 37 112C37 114.651 39.149 116.8 41.8 116.8H77C79.651 116.8 81.8 114.651 81.8 112C81.8 109.349 79.651 107.2 77 107.2H41.8Z" fill="#5130D3"/>
<path d="M131.627 22.1726C137.116 27.6617 139.391 35.11 140.333 46.4002H95.5689L116.672 14.7458C123.031 16.0862 127.805 18.3498 131.627 22.1726Z" fill="#5130D3"/>
</svg>
