<svg width="154" height="154" viewBox="0 0 154 154" fill="none" xmlns="http://www.w3.org/2000/svg">
<path d="M109 57.6C109 64.6692 103.269 70.4 96.2 70.4C89.1308 70.4 83.4 64.6692 83.4 57.6C83.4 50.5308 89.1308 44.8 96.2 44.8C103.269 44.8 109 50.5308 109 57.6Z" fill="#5130D3"/>
<path fill-rule="evenodd" clip-rule="evenodd" d="M77 8C39.0028 8 8.20001 38.8028 8.20001 76.8C8.20001 114.797 39.0028 145.6 77 145.6C114.997 145.6 145.8 114.797 145.8 76.8C145.8 38.8028 114.997 8 77 8ZM71.7662 98.3157L44.3119 70.8614C38.8322 65.3817 30.0423 65.089 24.2102 70.1921L17.8064 75.9186C18.2777 43.6297 44.5991 17.6 77 17.6C109.695 17.6 136.2 44.1047 136.2 76.8C136.2 89.3094 132.32 100.913 125.698 110.472L113.969 99.8333C107.316 93.8456 97.4086 93.2493 90.0855 98.3959L88.177 99.7371C83.088 103.314 76.1644 102.714 71.7662 98.3157Z" fill="#5130D3"/>
</svg>
